<svg xmlns="http://www.w3.org/2000/svg" width="24" height="24" viewBox="0 0 773 773">
<g transform="translate(0,773) scale(0.1,-0.1)" fill="#004bad" stroke="none">
<path d="M3555 7724 c-130 -13 -314 -38 -405 -55 -929 -177 -1753 -679 -2337
-1426 -428 -547 -693 -1186 -790 -1903 -26 -195 -26 -765 0 -960 150 -1107
710 -2042 1611 -2687 499 -357 1118 -597 1749 -678 161 -21 794 -21 957 -1
773 96 1478 409 2065 917 55 48 163 151 241 230 596 610 970 1396 1068 2249
22 187 22 713 0 900 -143 1240 -872 2328 -1969 2941 -426 238 -875 384 -1400
456 -105 14 -690 27 -790 17z m550 -414 c710 -53 1362 -310 1925 -759 129
-103 417 -392 524 -526 408 -511 652 -1099 738 -1775 20 -163 17 -641 -5 -810
-73 -540 -258 -1040 -548 -1475 -146 -219 -256 -353 -439 -535 -617 -618
-1396 -965 -2265 -1010 -1591 -82 -3038 946 -3485 2478 -95 323 -134 606 -134
967 0 278 15 441 64 685 173 863 680 1637 1406 2146 645 452 1438 671 2219
614z"/>
<path d="M3665 7144 c-22 -2 -89 -9 -149 -14 -608 -59 -1216 -310 -1711 -706
-141 -113 -386 -358 -499 -499 -305 -382 -525 -829 -635 -1295 -65 -275 -85
-453 -85 -760 -1 -258 9 -371 50 -600 232 -1282 1228 -2320 2499 -2605 845
-189 1740 -38 2461 414 801 503 1343 1312 1499 2235 67 400 58 851 -25 1241
-106 498 -328 964 -649 1365 -95 119 -308 338 -426 439 -498 426 -1094 688
-1741 766 -123 15 -505 27 -589 19z m1085 -609 c191 -29 356 -111 489 -244
111 -111 186 -261 211 -424 18 -110 8 -308 -22 -421 l-23 -90 -1015 -593
c-558 -327 -1035 -611 -1060 -632 -231 -195 -322 -537 -230 -868 10 -37 17
-70 14 -72 -8 -8 -149 21 -242 50 -322 103 -586 328 -742 634 -96 189 -140
364 -140 560 0 332 133 632 405 914 118 122 185 170 575 413 489 304 1215 696
1386 747 131 40 254 48 394 26z m-3 -2050 c225 -43 455 -159 628 -317 143
-131 286 -363 349 -566 138 -442 16 -883 -349 -1261 -92 -96 -135 -131 -265
-216 -465 -305 -896 -554 -1430 -827 -253 -130 -327 -151 -525 -152 -97 -1
-149 4 -205 18 -335 85 -562 313 -626 627 -23 116 -15 329 18 453 l23 88 1015
593 c635 372 1035 612 1069 641 99 87 178 213 220 349 44 141 44 345 1 502
-11 40 -20 75 -20 78 0 7 11 6 97 -10z"/>
</g>
</svg>
