<svg xmlns="http://www.w3.org/2000/svg" width="288" height="96" viewBox="0 0 288 96" fill="none" aria-label="talk ai">
  <defs>
    <linearGradient id="brand-node-l" x1="0" y1="0" x2="1" y2="1">
      <stop stop-color="#EB5E28" />
      <stop offset="1" stop-color="#2667FF" />
    </linearGradient>
  </defs>
  <path fill="#14120F" d="M48 14 C69 14 86 27.4 86 44 C86 60.6 69 74 48 74 C43.7 74 39.6 73.1 35.8 71.5 C30.2 78.3 21.8 82.6 12.5 83.2 C18.4 78.4 22.3 72.1 23.5 65.2 C15.2 59.7 10 52.3 10 44 C10 27.4 27 14 48 14 Z" />
  <circle cx="37" cy="44" r="7" fill="#EB5E28" />
  <circle cx="60" cy="44" r="8" fill="url(#brand-node-l)" />
  <g transform="translate(110 59) scale(0.027832 -0.027832)">
    <path fill="#14120F" d="M470.2430419921875 0.0Q326.85595703125 0.0 256.0616455078125 64.90130615234375Q185.267333984375 129.8026123046875 185.267333984375 257.6834716796875V829.95849609375H38.7777099609375V1080.0H185.267333984375V1286.3497314453125L535.621826171875 1372.6544189453125V1080.0H729.185546875V829.95849609375H535.621826171875V305.8275146484375Q535.621826171875 272.355908203125 545.121826171875 261.1987060546875Q554.621826171875 250.04150390625 585.621826171875 250.04150390625H750.621826171875V0.0Z M1262.2181396484375 -26.3580322265625Q1160.5062255859375 -26.3580322265625 1070.3950805664062 7.67486572265625Q980.283935546875 41.707763671875 923.9217529296875 114.10076904296875Q867.5595703125 186.4937744140625 867.5595703125 301.0740966796875Q867.5595703125 424.7984619140625 939.1007690429688 505.61944580078125Q1010.6419677734375 586.4404296875 1141.5391235351562 626.1152954101562Q1272.436279296875 665.7901611328125 1451.576171875 665.7901611328125H1592.275634765625L1574.275634765625 634.427978515625V698.14404296875Q1574.275634765625 795.9176025390625 1540.7468872070312 841.05126953125Q1507.2181396484375 886.1849365234375 1430.020751953125 886.1849365234375Q1355.1072998046875 886.1849365234375 1316.2946166992188 846.335205078125Q1277.48193359375 806.4854736328125 1264.8358154296875 729.27978515625L915.4896240234375 785.6419677734375Q934.707763671875 876.572021484375 996.5308227539062 949.64404296875Q1058.3538818359375 1022.716064453125 1169.7880859375 1065.716064453125Q1281.2222900390625 1108.716064453125 1449.0948486328125 1108.716064453125Q1596.60107421875 1108.716064453125 1702.2883911132812 1064.7181396484375Q1807.9757080078125 1020.72021484375 1864.6609497070312 914.7510375976562Q1921.34619140625 808.7818603515625 1921.34619140625 621.97509765625V305.8275146484375Q1921.34619140625 272.04150390625 1930.84619140625 261.04150390625Q1940.34619140625 250.04150390625 1971.34619140625 250.04150390625H2015.053955078125V0.0H1858.5352783203125Q1722.9383544921875 0.0 1656.1090698242188 65.2943115234375Q1589.27978515625 130.588623046875 1589.27978515625 257.6834716796875V298.31298828125L1652.7943115234375 270.8026123046875Q1640.724365234375 227.2305908203125 1617.4054565429688 176.26348876953125Q1594.0865478515625 125.29638671875 1550.8375854492188 79.1502685546875Q1507.588623046875 33.004150390625 1437.4075317382812 3.32305908203125Q1367.2264404296875 -26.3580322265625 1262.2181396484375 -26.3580322265625ZM1367.029052734375 202.461181640625Q1431.9508056640625 202.461181640625 1478.9774780273438 231.27801513671875Q1526.004150390625 260.0948486328125 1551.8189086914062 314.97540283203125Q1577.6336669921875 369.85595703125 1577.6336669921875 447.7611083984375V477.1973876953125H1469.156494140625Q1373.0989990234375 477.1973876953125 1320.1793212890625 452.02252197265625Q1267.2596435546875 426.84765625 1246.6567993164062 391.06787109375Q1226.053955078125 355.2880859375 1226.053955078125 321.580322265625Q1226.053955078125 299.6627197265625 1236.8707885742188 271.63189697265625Q1247.6876220703125 243.60107421875 1277.9674072265625 223.0311279296875Q1308.2471923828125 202.461181640625 1367.029052734375 202.461181640625Z M2481.3912353515625 0.0Q2338.004150390625 0.0 2267.2098388671875 64.90130615234375Q2196.41552734375 129.8026123046875 2196.41552734375 257.6834716796875V1500.0H2546.77001953125V305.8275146484375Q2546.77001953125 272.355908203125 2556.27001953125 261.1987060546875Q2565.77001953125 250.04150390625 2596.77001953125 250.04150390625H2671.1156005859375V0.0Z M2843.3455810546875 0.0V1500.0H3193.7000732421875V691.3212890625L3574.15234375 1080.0H3959.5684814453125L3568.5892333984375 677.860107421875L3977.214599609375 0.0H3591.14404296875L3337.333740234375 434.5963134765625L3193.7000732421875 286.67041015625V0.0Z M4844.2181396484375 -26.3580322265625Q4742.5062255859375 -26.3580322265625 4652.395080566406 7.67486572265625Q4562.283935546875 41.707763671875 4505.9217529296875 114.10076904296875Q4449.5595703125 186.4937744140625 4449.5595703125 301.0740966796875Q4449.5595703125 424.7984619140625 4521.100769042969 505.61944580078125Q4592.6419677734375 586.4404296875 4723.539123535156 626.1152954101562Q4854.436279296875 665.7901611328125 5033.576171875 665.7901611328125H5174.275634765625L5156.275634765625 634.427978515625V698.14404296875Q5156.275634765625 795.9176025390625 5122.746887207031 841.05126953125Q5089.2181396484375 886.1849365234375 5012.020751953125 886.1849365234375Q4937.1072998046875 886.1849365234375 4898.294616699219 846.335205078125Q4859.48193359375 806.4854736328125 4846.8358154296875 729.27978515625L4497.4896240234375 785.6419677734375Q4516.707763671875 876.572021484375 4578.530822753906 949.64404296875Q4640.3538818359375 1022.716064453125 4751.7880859375 1065.716064453125Q4863.2222900390625 1108.716064453125 5031.0948486328125 1108.716064453125Q5178.60107421875 1108.716064453125 5284.288391113281 1064.7181396484375Q5389.9757080078125 1020.72021484375 5446.660949707031 914.7510375976562Q5503.34619140625 808.7818603515625 5503.34619140625 621.97509765625V305.8275146484375Q5503.34619140625 272.04150390625 5512.84619140625 261.04150390625Q5522.34619140625 250.04150390625 5553.34619140625 250.04150390625H5597.053955078125V0.0H5440.5352783203125Q5304.9383544921875 0.0 5238.109069824219 65.2943115234375Q5171.27978515625 130.588623046875 5171.27978515625 257.6834716796875V298.31298828125L5234.7943115234375 270.8026123046875Q5222.724365234375 227.2305908203125 5199.405456542969 176.26348876953125Q5176.0865478515625 125.29638671875 5132.837585449219 79.1502685546875Q5089.588623046875 33.004150390625 5019.407531738281 3.32305908203125Q4949.2264404296875 -26.3580322265625 4844.2181396484375 -26.3580322265625ZM4949.029052734375 202.461181640625Q5013.9508056640625 202.461181640625 5060.977478027344 231.27801513671875Q5108.004150390625 260.0948486328125 5133.818908691406 314.97540283203125Q5159.6336669921875 369.85595703125 5159.6336669921875 447.7611083984375V477.1973876953125H5051.156494140625Q4955.0989990234375 477.1973876953125 4902.1793212890625 452.02252197265625Q4849.2596435546875 426.84765625 4828.656799316406 391.06787109375Q4808.053955078125 355.2880859375 4808.053955078125 321.580322265625Q4808.053955078125 299.6627197265625 4818.870788574219 271.63189697265625Q4829.6876220703125 243.60107421875 4859.9674072265625 223.0311279296875Q4890.2471923828125 202.461181640625 4949.029052734375 202.461181640625Z M5785.3455810546875 0.0V1080.0H6135.7000732421875V0.0ZM5960.5228271484375 1187.9010009765625Q5858.5062255859375 1187.9010009765625 5799.427978515625 1246.979248046875Q5740.3497314453125 1306.0574951171875 5740.3497314453125 1408.0740966796875Q5740.3497314453125 1510.3046875 5799.427978515625 1569.2759399414062Q5858.5062255859375 1628.2471923828125 5960.5228271484375 1628.2471923828125Q6062.75341796875 1628.2471923828125 6121.724670410156 1569.2759399414062Q6180.6959228515625 1510.3046875 6180.6959228515625 1408.0740966796875Q6180.6959228515625 1306.0574951171875 6121.724670410156 1246.979248046875Q6062.75341796875 1187.9010009765625 5960.5228271484375 1187.9010009765625Z" />
  </g>
</svg>
